<?xml version="1.0" encoding="UTF-8" standalone="no"?>
<svg
   xmlns:dc="http://purl.org/dc/elements/1.1/"
   xmlns:cc="http://creativecommons.org/ns#"
   xmlns:rdf="http://www.w3.org/1999/02/22-rdf-syntax-ns#"
   xmlns:svg="http://www.w3.org/2000/svg"
   xmlns="http://www.w3.org/2000/svg"
   xmlns:sodipodi="http://sodipodi.sourceforge.net/DTD/sodipodi-0.dtd"
   xmlns:inkscape="http://www.inkscape.org/namespaces/inkscape"
   width="50"
   height="50"
   id="svg2"
   sodipodi:version="0.32"
   inkscape:version="0.91 r13725"
   sodipodi:docname="image-node.svg"
   inkscape:output_extension="org.inkscape.output.svg.inkscape"
   version="1.1">
  <metadata
     id="metadata40">
    <rdf:RDF>
      <cc:Work
         rdf:about="">
        <dc:format>image/svg+xml</dc:format>
        <dc:type
           rdf:resource="http://purl.org/dc/dcmitype/StillImage" />
        <dc:title></dc:title>
      </cc:Work>
    </rdf:RDF>
  </metadata>
  <sodipodi:namedview
     inkscape:window-height="836"
     inkscape:window-width="1600"
     inkscape:pageshadow="2"
     inkscape:pageopacity="0"
     guidetolerance="10.0"
     gridtolerance="10.0"
     objecttolerance="10.0"
     borderopacity="1.0"
     bordercolor="#666666"
     pagecolor="#000000"
     id="base"
     showgrid="false"
     inkscape:zoom="9.24"
     inkscape:cx="3.8953951"
     inkscape:cy="23.329777"
     inkscape:window-x="0"
     inkscape:window-y="27"
     inkscape:current-layer="svg2"
     inkscape:window-maximized="1" />
  <defs
     id="defs4">
    <inkscape:perspective
       sodipodi:type="inkscape:persp3d"
       inkscape:vp_x="0 : 25 : 1"
       inkscape:vp_y="0 : 1000 : 0"
       inkscape:vp_z="50 : 25 : 1"
       inkscape:persp3d-origin="25 : 16.666667 : 1"
       id="perspective42" />
    <mask
       id="Mask"
       maskUnits="userSpaceOnUse"
       x="0"
       y="0"
       width="50"
       height="50">
      <rect
         x="0"
         y="0"
         width="50"
         height="50"
         fill="#FFFFFF"
         id="rect7" />
      <line
         x1="38"
         y1="3"
         x2="46"
         y2="13"
         stroke-linecap="round"
         stroke-width="3.0"
         stroke="black"
         id="line9" />
      <line
         x1="46"
         y1="3"
         x2="38"
         y2="13"
         stroke-linecap="round"
         stroke-width="3.0"
         stroke="black"
         id="line11" />
      <line
         x1="42"
         y1="1"
         x2="42"
         y2="15"
         stroke-linecap="round"
         stroke-width="3.0"
         stroke="black"
         id="line13" />
      <line
         x1="35"
         y1="8"
         x2="49"
         y2="8"
         stroke-linecap="round"
         stroke-width="3.0"
         stroke="black"
         id="line15" />
    </mask>
    <mask
       id="Mask-1"
       maskUnits="userSpaceOnUse"
       x="0"
       y="0"
       width="50"
       height="50">
      <rect
         style="fill:#ffffff"
         x="0"
         y="0"
         width="50"
         height="50"
         id="rect7-4" />
      <line
         style="stroke:#000000;stroke-width:10"
         x1="35"
         y1="4"
         x2="35"
         y2="26"
         id="line9-9" />
      <line
         style="stroke:#000000;stroke-width:10"
         x1="24"
         y1="15"
         x2="46"
         y2="15"
         id="line11-1" />
      <polyline
         points="17.7,38.7 26.3,31 21,38.7"
         style="fill:#000000;stroke:none;stroke-width:0"
         id="polyline13" />
    </mask>
    <mask
       id="mask5678"
       maskUnits="userSpaceOnUse"
       x="0"
       y="0"
       width="50"
       height="50">
      <rect
         style="fill:#ffffff"
         x="0"
         y="0"
         width="50"
         height="50"
         id="rect5680" />
      <line
         style="stroke:#000000;stroke-width:10"
         x1="35"
         y1="4"
         x2="35"
         y2="26"
         id="line5682" />
      <line
         style="stroke:#000000;stroke-width:10"
         x1="24"
         y1="15"
         x2="46"
         y2="15"
         id="line5684" />
      <polyline
         points="17.7,38.7 26.3,31 21,38.7"
         style="fill:#000000;stroke:none;stroke-width:0"
         id="polyline5686" />
    </mask>
    <mask
       id="mask5688"
       maskUnits="userSpaceOnUse"
       x="0"
       y="0"
       width="50"
       height="50">
      <rect
         style="fill:#ffffff"
         x="0"
         y="0"
         width="50"
         height="50"
         id="rect5690" />
      <line
         style="stroke:#000000;stroke-width:10"
         x1="35"
         y1="4"
         x2="35"
         y2="26"
         id="line5692" />
      <line
         style="stroke:#000000;stroke-width:10"
         x1="24"
         y1="15"
         x2="46"
         y2="15"
         id="line5694" />
      <polyline
         points="17.7,38.7 26.3,31 21,38.7"
         style="fill:#000000;stroke:none;stroke-width:0"
         id="polyline5696" />
    </mask>
    <mask
       id="mask5698"
       maskUnits="userSpaceOnUse"
       x="0"
       y="0"
       width="50"
       height="50">
      <rect
         style="fill:#ffffff"
         x="0"
         y="0"
         width="50"
         height="50"
         id="rect5700" />
      <line
         style="stroke:#000000;stroke-width:10"
         x1="35"
         y1="4"
         x2="35"
         y2="26"
         id="line5702" />
      <line
         style="stroke:#000000;stroke-width:10"
         x1="24"
         y1="15"
         x2="46"
         y2="15"
         id="line5704" />
      <polyline
         points="17.7,38.7 26.3,31 21,38.7"
         style="fill:#000000;stroke:none;stroke-width:0"
         id="polyline5706" />
    </mask>
    <mask
       id="mask5708"
       maskUnits="userSpaceOnUse"
       x="0"
       y="0"
       width="50"
       height="50">
      <rect
         style="fill:#ffffff"
         x="0"
         y="0"
         width="50"
         height="50"
         id="rect5710" />
      <line
         style="stroke:#000000;stroke-width:10"
         x1="35"
         y1="4"
         x2="35"
         y2="26"
         id="line5712" />
      <line
         style="stroke:#000000;stroke-width:10"
         x1="24"
         y1="15"
         x2="46"
         y2="15"
         id="line5714" />
      <polyline
         points="17.7,38.7 26.3,31 21,38.7"
         style="fill:#000000;stroke:none;stroke-width:0"
         id="polyline5716" />
    </mask>
    <mask
       id="mask5718"
       maskUnits="userSpaceOnUse"
       x="0"
       y="0"
       width="50"
       height="50">
      <rect
         style="fill:#ffffff"
         x="0"
         y="0"
         width="50"
         height="50"
         id="rect5720" />
      <line
         style="stroke:#000000;stroke-width:10"
         x1="35"
         y1="4"
         x2="35"
         y2="26"
         id="line5722" />
      <line
         style="stroke:#000000;stroke-width:10"
         x1="24"
         y1="15"
         x2="46"
         y2="15"
         id="line5724" />
      <polyline
         points="17.7,38.7 26.3,31 21,38.7"
         style="fill:#000000;stroke:none;stroke-width:0"
         id="polyline5726" />
    </mask>
    <mask
       id="mask5728"
       maskUnits="userSpaceOnUse"
       x="0"
       y="0"
       width="50"
       height="50">
      <rect
         style="fill:#ffffff"
         x="0"
         y="0"
         width="50"
         height="50"
         id="rect5730" />
      <line
         style="stroke:#000000;stroke-width:10"
         x1="35"
         y1="4"
         x2="35"
         y2="26"
         id="line5732" />
      <line
         style="stroke:#000000;stroke-width:10"
         x1="24"
         y1="15"
         x2="46"
         y2="15"
         id="line5734" />
      <polyline
         points="17.7,38.7 26.3,31 21,38.7"
         style="fill:#000000;stroke:none;stroke-width:0"
         id="polyline5736" />
    </mask>
  </defs>
  <rect
     style="fill:none;stroke:#ffffff;stroke-width:4.22981119;stroke-linecap:round;stroke-linejoin:round;stroke-miterlimit:4;stroke-opacity:1;stroke-dasharray:none;stroke-dashoffset:0"
     id="rect3161"
     width="40.555946"
     height="28.218283"
     x="4.6149058"
     y="11.166812" />
  <circle
     cx="12.3"
     cy="23.700001"
     r="3"
     mask="url(#Mask-1)"
     style="fill:#ffffff;stroke:#ffffff;stroke-width:1.5;stroke-opacity:1"
     id="circle19"
     transform="matrix(1.0161029,0,0,0.97609657,21.4746,-4.2525485)" />
  <polyline
     points="13,39.7 27.6,29.6 34.3,33.6 34.3,39.7"
     mask="url(#Mask-1)"
     style="fill:#ffffff;stroke:#ffffff;stroke-width:3;stroke-opacity:1"
     id="polyline23"
     transform="matrix(0.998533,0,0,0.95096121,7.3743727,-0.26528164)" />
  <polyline
     points="20.3,26.3 21.7,27.7 23,26.3"
     mask="url(#Mask-1)"
     style="fill:none;stroke:#ffffff;stroke-width:0.89999998;stroke-opacity:1"
     id="polyline25"
     transform="matrix(1.0161029,0,0,0.97609657,-9.206431,-1.9285088)"
     inkscape:transform-center-x="3.7341791"
     inkscape:transform-center-y="2.5060537" />
  <polyline
     points="23.8,24.3 25.3,22.8 26.9,24.3"
     mask="url(#Mask-1)"
     style="fill:none;stroke:#ffffff;stroke-width:1;stroke-opacity:1"
     id="polyline27"
     transform="matrix(1.0161029,0,0,0.97609657,-9.206431,-1.9285088)"
     inkscape:transform-center-x="-0.025401645"
     inkscape:transform-center-y="-0.86147952" />
  <polyline
     points="27,19.7 28.7,21.3 30.3,19.7"
     mask="url(#Mask-1)"
     style="fill:none;stroke:#ffffff;stroke-width:1;stroke-opacity:1"
     id="polyline29"
     transform="matrix(1.0161029,0,0,0.97609657,-9.206431,-1.9285088)"
     inkscape:transform-center-x="-3.3785412"
     inkscape:transform-center-y="-3.8385741" />
  <polyline
     points="5,35 13.7,32.3 20.3,34.1"
     mask="url(#Mask-1)"
     style="fill:none;stroke:#ffffff;stroke-width:2.5;stroke-opacity:1"
     id="polyline21"
     transform="matrix(1.0161029,0,0,0.97609657,0.58070787,2.825208)" />
</svg>
